<?xml version="1.0" standalone="no"?>
<!DOCTYPE svg PUBLIC "-//W3C//DTD SVG 20010904//EN"
 "http://www.w3.org/TR/2001/REC-SVG-20010904/DTD/svg10.dtd">
<svg version="1.0" xmlns="http://www.w3.org/2000/svg"
 width="700.000000pt" height="700.000000pt" viewBox="0 0 700.000000 700.000000"
 preserveAspectRatio="xMidYMid meet">
<metadata>
Created by potrace 1.11, written by Peter Selinger 2001-2013
</metadata>
<g transform="translate(0.000000,700.000000) scale(0.100000,-0.100000)"
fill="#000000" stroke="none">
<path d="M3820 5945 c-225 -37 -399 -106 -605 -239 -44 -29 -101 -65 -127 -82
-26 -16 -93 -58 -149 -94 -55 -36 -111 -72 -125 -80 -163 -102 -737 -472 -777
-502 -143 -105 -306 -301 -388 -467 -92 -187 -132 -361 -133 -581 -1 -172 4
-214 39 -370 11 -48 59 -179 83 -227 l29 -56 -62 -121 c-114 -221 -155 -399
-151 -646 5 -228 46 -402 141 -591 120 -240 265 -407 509 -588 57 -42 273
-151 346 -175 90 -29 188 -56 228 -62 20 -3 44 -7 52 -9 74 -21 400 -21 462 0
7 2 29 6 48 9 57 8 207 54 284 87 80 34 151 73 246 134 36 23 153 97 260 165
495 313 639 405 692 441 32 22 60 39 62 39 4 0 130 81 151 97 6 5 30 24 55 42
55 42 161 148 218 217 101 124 195 314 238 482 35 136 38 167 39 337 0 136 -4
193 -19 265 -3 14 -8 39 -12 55 -16 80 -92 290 -116 321 -5 7 -1 21 10 35 25
32 106 199 131 270 54 152 66 236 66 444 -1 174 -14 259 -65 423 -34 106 -102
250 -160 337 -22 33 -51 77 -65 97 -41 61 -205 227 -285 288 -198 150 -407
244 -660 296 -98 21 -389 26 -490 9z m475 -574 c90 -24 223 -84 293 -133 174
-123 305 -313 358 -518 37 -143 27 -348 -22 -478 l-16 -43 -22 19 c-87 78
-276 181 -426 232 l-95 32 -1 62 c-2 204 -227 334 -403 232 -20 -11 -96 -59
-169 -106 -73 -47 -143 -92 -157 -100 -13 -8 -142 -91 -287 -183 -145 -93
-326 -209 -403 -258 -179 -115 -192 -125 -221 -175 -115 -197 100 -446 321
-371 26 9 155 85 288 168 133 84 274 168 314 186 315 146 721 77 976 -166 145
-137 250 -328 275 -496 14 -99 6 -275 -16 -359 -38 -139 -122 -278 -226 -374
-25 -23 -103 -80 -174 -125 -132 -86 -491 -315 -520 -332 -10 -5 -146 -92
-304 -192 -312 -199 -370 -231 -469 -261 -85 -26 -154 -36 -264 -36 -116 0
-167 8 -279 44 -260 83 -471 288 -571 555 -57 151 -64 343 -18 505 27 94 28
95 71 62 103 -81 292 -181 427 -226 l81 -26 -3 -48 c-9 -179 184 -324 356
-265 40 13 72 32 251 148 36 23 265 169 510 324 284 181 460 299 486 327 113
119 66 318 -93 395 -53 26 -135 35 -189 20 -22 -6 -148 -79 -279 -162 -132
-83 -269 -166 -305 -184 -294 -147 -658 -112 -925 88 -171 128 -281 286 -337
487 -23 80 -31 271 -15 358 30 162 112 318 231 434 51 50 262 192 581 392 33
20 101 63 150 95 607 389 625 400 731 435 154 50 355 57 509 17z"/>
</g>
</svg>
