<svg xmlns="http://www.w3.org/2000/svg" xmlns:xlink="http://www.w3.org/1999/xlink" width="512" height="512" viewBox="0 0 512 512"><defs><clipPath id="b"><rect width="512" height="512"/></clipPath></defs><g id="a" clip-path="url(#b)"><g transform="translate(-85.374 615.523)"><path d="M372.095-594.543c-21.558,3.545-38.23,10.156-57.967,22.9-4.216,2.779-9.677,6.228-12.168,7.857-2.491,1.533-8.911,5.557-14.276,9.006-5.27,3.449-10.635,6.9-11.977,7.665-15.618,9.773-70.615,45.224-74.448,48.1-13.7,10.06-29.319,28.84-37.176,44.745-8.815,17.917-12.647,34.589-12.743,55.668-.1,16.48.383,20.5,3.737,35.451a153,153,0,0,0,7.953,21.75l2.779,5.366-5.94,11.593c-10.923,21.175-14.851,38.23-14.468,61.9.479,21.846,4.407,38.517,13.51,56.626,11.5,23,25.391,39,48.769,56.339,5.461,4.024,26.157,14.468,33.152,16.767,8.623,2.779,18.013,5.366,21.846,5.94,1.916.287,4.216.671,4.982.862,7.09,2.012,38.326,2.012,44.266,0,.671-.192,2.779-.575,4.6-.862,5.461-.766,19.833-5.174,27.211-8.336A151.144,151.144,0,0,0,367.3-148.05c3.449-2.2,14.659-9.294,24.912-15.809,47.428-29.99,61.225-38.8,66.3-42.254a55.426,55.426,0,0,1,5.94-3.737c.383,0,12.456-7.761,14.468-9.294.575-.479,2.874-2.3,5.27-4.024,5.27-4.024,15.426-14.18,20.887-20.792,9.677-11.881,18.684-30.086,22.8-46.182,3.353-13.031,3.641-16,3.737-32.289,0-13.031-.383-18.492-1.82-25.391-.287-1.341-.766-3.737-1.15-5.27-1.533-7.665-8.815-27.786-11.115-30.756-.479-.671-.1-2.012.958-3.354,2.4-3.066,10.157-19.067,12.552-25.87,5.174-14.564,6.324-22.612,6.324-42.541-.1-16.672-1.341-24.816-6.228-40.529-3.258-10.156-9.773-23.953-15.33-32.289-2.108-3.162-4.887-7.378-6.228-9.294-3.928-5.845-19.642-21.75-27.307-27.594-18.971-14.372-39-23.379-63.237-28.361C409.654-595.693,381.772-596.172,372.095-594.543Zm45.512,55c8.623,2.3,21.366,8.048,28.073,12.743a89.263,89.263,0,0,1,34.3,49.632c3.545,13.7,2.587,33.343-2.108,45.8l-1.533,4.12-2.108-1.821c-8.336-7.473-26.445-17.342-40.817-22.229l-9.1-3.066-.1-5.941c-.192-19.546-21.75-32-38.613-22.229-1.916,1.054-9.2,5.653-16.193,10.156s-13.7,8.815-15.043,9.581c-1.246.767-13.606,8.719-27.5,17.534-13.893,8.911-31.235,20.025-38.613,24.72-17.151,11.019-18.4,11.977-21.175,16.768-11.019,18.875,9.581,42.733,30.756,35.547,2.491-.862,14.851-8.144,27.594-16.1,12.743-8.048,26.253-16.1,30.086-17.821,30.181-13.989,69.082-7.378,93.514,15.905,13.893,13.127,23.953,31.427,26.349,47.524,1.341,9.486.575,26.349-1.533,34.4a78.88,78.88,0,0,1-21.654,35.834,158.544,158.544,0,0,1-16.672,11.977c-12.647,8.24-47.045,30.181-49.823,31.81-.958.479-13.989,8.815-29.127,18.4-29.894,19.067-35.451,22.133-44.937,25.007-8.144,2.491-14.755,3.449-25.295,3.449-11.114,0-16-.766-26.732-4.216-24.912-7.953-45.128-27.594-54.71-53.177-5.461-14.468-6.132-32.864-1.725-48.386,2.587-9.007,2.683-9.1,6.8-5.94,9.869,7.761,27.978,17.342,40.913,21.654l7.761,2.491-.287,4.6c-.862,17.151,17.63,31.044,34.11,25.391,3.833-1.246,6.9-3.066,24.049-14.18,3.449-2.2,25.391-16.192,48.865-31.044C392.6-298,409.462-309.3,411.953-311.988c10.827-11.4,6.324-30.469-8.911-37.846-5.078-2.491-12.935-3.353-18.109-1.916-2.108.575-14.18,7.569-26.732,15.522-12.647,7.953-25.774,15.905-29.223,17.63-28.169,14.085-63.045,10.731-88.628-8.432-16.384-12.264-26.924-27.4-32.289-46.661-2.2-7.665-2.97-25.966-1.437-34.3a78.863,78.863,0,0,1,22.133-41.583c4.886-4.79,25.1-18.4,55.668-37.559,3.162-1.916,9.677-6.036,14.372-9.1,58.159-37.272,59.884-38.326,70.04-41.679C383.592-542.707,402.851-543.378,417.606-539.545Z" transform="translate(0)"/></g></g></svg>